<svg width="86" height="29" viewBox="0 0 86 29" fill="none" xmlns="http://www.w3.org/2000/svg">
<path d="M0.424 21.5V0.139999H8.65472C13.2115 0.139999 15.6038 2.73168 15.6038 5.92144C15.6038 9.16816 13.5248 12.1016 8.65472 12.1016H4.46816V21.5H0.424ZM4.46816 3.32976V8.85488H8.65472C10.9331 8.85488 11.8445 7.74416 11.8445 6.00688C11.8445 4.32656 10.8477 3.32976 8.65472 3.32976H4.46816ZM24.7573 21.5285C19.0613 21.5285 17.0392 17.7406 17.0392 14.1522C17.0392 10.7915 18.6341 6.66192 24.3585 6.66192C27.8901 6.66192 30.0545 8.79792 30.795 11.1048C31.0798 12.0162 31.1368 12.899 30.8805 13.8389L21.1403 15.6901C21.5105 17.171 22.7067 18.1109 24.7857 18.1109C26.8363 18.1109 28.004 17.285 28.7729 15.5477L31.6209 18.3387C29.7697 20.5317 27.8331 21.5285 24.7573 21.5285ZM21.1403 13.2123L26.9217 11.9022C26.5515 10.7915 25.6117 10.108 24.3301 10.108C22.251 10.108 21.1688 11.7029 21.1403 13.2123ZM33.0314 7.08912L35.1674 6.80432V1.39312H39.2115V6.66192H43.6259V9.88016H39.2115V15.6901C39.2115 16.1173 39.1546 17.3134 39.4679 17.6267C39.6103 17.8261 39.8666 17.94 40.0944 17.94C40.3223 17.94 40.5216 17.8261 40.664 17.6267C41.0058 17.1141 41.0058 16.2882 41.0058 15.0635L44.4519 17.0571C44.1386 18.9938 42.857 21.5 39.6957 21.5C36.1357 21.5 35.1674 18.6805 35.1674 15.6616V9.88016H33.0314V7.08912ZM47.2881 4.81072V0.139999H51.7594V4.81072H47.2881ZM51.5031 6.8328V21.5H47.4874V6.8328H51.5031ZM55.3259 0.139999H70.05V3.47216H59.37V7.08912H68.9393V10.3358H59.37V21.5H55.3259V0.139999ZM69.1898 23.693L72.6359 21.6994C72.6359 23.2373 72.5505 23.693 72.9492 24.1771C73.0916 24.348 73.3194 24.4334 73.5473 24.4334C73.8606 24.4334 74.2308 24.2341 74.4017 23.7214L75.5124 20.5317L70.1866 6.91824H74.5726L77.6484 15.6331H77.9332L81.3793 6.91824H85.8222C85.8222 6.91824 77.8478 24.8891 77.6199 25.3733C76.737 27.3099 75.5409 28.0789 73.8321 28.0789C70.6708 28.0789 69.5031 25.6296 69.1898 23.693Z" fill="black"/>
</svg>
